<svg t="1698112416259" class="icon" viewBox="0 0 1024 1024" version="1.1" xmlns="http://www.w3.org/2000/svg" p-id="4066" width="200" height="200"><path d="M1013.333333 486.4l-153.6-153.6c-10.666667-10.666667-27.733333-2.133333-27.733333 10.666667v132.266666H544V189.866667h132.266667c14.933333 0 21.333333-17.066667 10.666666-27.733334L533.333333 8.533333c-12.8-12.8-32-12.8-44.8 0l-153.6 153.6c-10.666667 10.666667-2.133333 27.733333 10.666667 27.733334h132.266667v285.866666L192 477.866667v-132.266667c0-14.933333-17.066667-21.333333-27.733333-10.666667L10.666667 488.533333c-12.8 12.8-12.8 32 0 44.8l153.6 153.6c10.666667 10.666667 27.733333 2.133333 27.733333-10.666666v-132.266667h285.866667v285.866667h-132.266667c-14.933333 0-21.333333 17.066667-10.666667 27.733333l153.6 153.6c12.8 12.8 32 12.8 44.8 0l153.6-153.6c10.666667-10.666667 2.133333-27.733333-10.666666-27.733333h-132.266667V544H832v132.266667c0 14.933333 17.066667 21.333333 27.733333 10.666666l153.6-153.6c10.666667-12.8 10.666667-34.133333 0-46.933333z" fill="#212121" p-id="4067"></path></svg>