<svg t="1699231723199" class="icon" viewBox="0 0 1024 1024" version="1.1" xmlns="http://www.w3.org/2000/svg" p-id="9503" width="200" height="200"><path d="M629.1968 703.3856a15.36 15.36 0 0 1-15.36-15.36l0.3072-31.0272V650.9568c1.28-38.6048 18.4832-72.8064 51.2-101.9392a244.0704 244.0704 0 0 0 19.7632-19.968A231.424 231.424 0 0 0 685.568 225.28l-0.6144-0.6656a230.4 230.4 0 0 0-346.0608 0l-0.4096 0.512a231.2704 231.2704 0 0 0 0.9216 304.0256 234.4448 234.4448 0 0 0 19.5584 19.5072c34.3552 30.72 51.7632 66.56 51.7632 106.9568l-0.3584 31.6416a15.36 15.36 0 0 1-15.36 15.36 15.36 15.36 0 0 1-15.36-15.36l0.3584-31.5904c0-31.5904-13.568-59.0336-41.472-83.968a263.3728 263.3728 0 0 1-22.0672-22.016A262.0416 262.0416 0 0 1 315.7504 204.8l0.4096-0.4096A261.12 261.12 0 0 1 512 115.8144a261.9392 261.9392 0 0 1 195.1744 87.7056l4.8128 4.8128v0.7168a262.1952 262.1952 0 0 1-3.84 340.224 282.3168 282.3168 0 0 1-22.272 22.528c-27.2384 24.2688-40.6016 51.2-40.96 82.5344l-0.4096 33.8432a15.36 15.36 0 0 1-15.3088 15.2064zM696.32 214.5792z" fill="#1296db" p-id="9504"></path><path d="M512 589.7728a15.36 15.36 0 0 1-15.36-15.36V244.7872a15.36 15.36 0 0 1 30.72 0v329.6256a15.36 15.36 0 0 1-15.36 15.36z" fill="#1296db" p-id="9505"></path><path d="M676.7104 424.96H347.0848a15.36 15.36 0 0 1 0-30.72h329.6256a15.36 15.36 0 0 1 0 30.72z" fill="#1296db" p-id="9506"></path><path d="M424.96 511.6928a15.36 15.36 0 0 1-10.8544-26.2144l173.6704-173.4656a15.36 15.36 0 0 1 21.504 21.7088L436.0192 507.1872a15.36 15.36 0 0 1-11.0592 4.5056z" fill="#1296db" p-id="9507"></path><path d="M598.6304 511.6928a15.36 15.36 0 0 1-10.8544-4.5056L414.3104 333.7216a15.36 15.36 0 1 1 21.7088-21.7088L609.28 485.4784a15.36 15.36 0 0 1 0 21.7088 15.36 15.36 0 0 1-10.6496 4.5056zM629.1968 702.8736H395.008a15.36 15.36 0 0 1 0-30.72h234.1888a15.36 15.36 0 1 1 0 30.72zM629.1968 771.6352H395.008a15.36 15.36 0 0 1 0-30.72h234.1888a15.36 15.36 0 1 1 0 30.72zM629.1968 839.68H395.008a15.36 15.36 0 0 1 0-30.72h234.1888a15.36 15.36 0 1 1 0 30.72zM586.6496 908.1856H437.5552a15.36 15.36 0 1 1 0-30.72h149.0944a15.36 15.36 0 0 1 0 30.72z" fill="#1296db" p-id="9508"></path></svg>